<svg width="386" height="242" viewBox="0 0 386 242" fill="none" xmlns="http://www.w3.org/2000/svg">
<rect width="386" height="242" fill="#F5F5F5"/>
<g id="undraw_real_time_sync_re_nky7 1" clip-path="url(#clip0_0_1)">
<rect width="386" height="242" fill="#19B9B9"/>
<path id="Vector" d="M314.139 24.3221C316.606 16.6539 314.261 7.711 306.293 2.66711C306.137 11.2522 302.002 19.5186 294.621 26.0037C291.763 28.4969 288.243 31.043 288.104 34.3526C288.018 36.4119 289.336 38.3898 291.154 39.915C292.971 41.4401 295.263 42.5815 297.528 43.7054L297.861 44.1529C305.153 38.546 311.673 31.9903 314.139 24.3221Z" fill="#F0F0F0"/>
<path id="Vector_2" d="M306.132 2.77915C309.188 8.88494 309.643 15.5695 307.431 21.8834C306.987 23.2491 306.263 24.5528 305.286 25.7466C304.285 26.8861 302.902 27.8004 301.28 28.3946C299.783 28.9718 298.164 29.43 296.877 30.2746C296.226 30.7144 295.705 31.254 295.348 31.858C294.99 32.4621 294.804 33.117 294.802 33.7797C294.739 35.4309 295.459 37.0006 296.233 38.5171C297.093 40.2008 298.02 41.9393 297.822 43.7827C297.797 44.006 298.254 44.0215 298.278 43.7984C298.623 40.5912 295.766 37.8821 295.312 34.7712C295.101 33.3197 295.462 31.8107 296.87 30.7524C298.101 29.8269 299.77 29.3533 301.293 28.7788C302.886 28.2168 304.274 27.3661 305.336 26.3009C306.389 25.1489 307.178 23.8686 307.668 22.5148C308.835 19.4805 309.37 16.3251 309.251 13.1643C309.142 9.55638 308.224 5.98926 306.537 2.61729C306.432 2.40862 306.029 2.57184 306.132 2.77915Z" fill="white"/>
<path id="Vector_3" d="M308.3 19.8823C309.74 20.0213 311.198 19.7657 312.414 19.1609C313.629 18.5562 314.523 17.6417 314.936 16.5809C315.019 16.366 314.585 16.2582 314.502 16.4733C314.12 17.4617 313.287 18.3134 312.154 18.8748C311.02 19.4362 309.661 19.6702 308.321 19.5347C308.03 19.5055 308.011 19.8533 308.3 19.8823Z" fill="white"/>
<path id="Vector_4" d="M302.09 28.1782C300.251 26.4029 299.358 24.1646 299.588 21.9095C299.611 21.6861 299.155 21.6706 299.132 21.8937C298.898 24.2408 299.834 26.5687 301.753 28.4128C301.936 28.5885 302.272 28.3529 302.09 28.1782Z" fill="white"/>
<path id="Vector_5" d="M308.592 9.74941C308.02 9.78412 307.446 9.71 306.921 9.53372C306.396 9.35744 305.936 9.08452 305.584 8.73946C305.404 8.56208 305.068 8.79792 305.247 8.97413C305.639 9.35398 306.146 9.65493 306.726 9.85067C307.305 10.0464 307.939 10.131 308.571 10.097C308.631 10.0976 308.689 10.0808 308.734 10.05C308.778 10.0192 308.805 9.97667 308.81 9.9311C308.812 9.88506 308.791 9.84015 308.75 9.80613C308.709 9.77211 308.652 9.75173 308.592 9.74941Z" fill="white"/>
<path id="Vector_6" d="M271.835 7.63129C271.943 7.74447 272.052 7.85766 272.159 7.97364C273.604 9.50106 274.884 11.1155 275.987 12.801C276.075 12.9303 276.161 13.0623 276.244 13.1932C278.844 17.2755 280.426 21.6902 280.912 26.2129C281.103 28.0127 281.114 29.821 280.945 31.6221C280.711 34.1095 280.198 36.7923 281.032 39.1245C281.115 39.3686 281.218 39.6085 281.34 39.8428L297.119 44.4276C297.162 44.4243 297.203 44.4238 297.246 44.4205L297.865 44.6255C297.883 44.5331 297.898 44.437 297.915 44.3445C297.925 44.2909 297.932 44.2363 297.942 44.1828C297.948 44.1467 297.954 44.1106 297.962 44.0783C297.964 44.0663 297.965 44.0543 297.966 44.045C297.974 44.0128 297.977 43.9821 297.983 43.9526C298.07 43.4154 298.153 42.8767 298.231 42.3367C298.232 42.334 298.232 42.334 298.23 42.3302C298.873 38.2195 298.874 34.0652 298.234 29.9543C298.212 29.8318 298.192 29.7066 298.164 29.582C297.832 27.7484 297.305 25.9384 296.586 24.1703C296.189 23.203 295.727 22.2518 295.203 21.3201C293.844 18.9149 291.997 16.6876 289.73 14.7199C285.21 10.7978 279.094 8.0214 272.351 7.65538C272.178 7.64613 272.009 7.63779 271.835 7.63129Z" fill="#F0F0F0"/>
<path id="Vector_7" d="M271.794 7.79427C279.056 11.2669 284.699 16.3956 287.92 22.4519C288.644 23.7463 289.095 25.1195 289.258 26.5211C289.359 27.8904 288.976 29.2552 288.151 30.4737C287.412 31.6217 286.481 32.7307 286.12 33.9958C285.948 34.6454 285.958 35.3154 286.15 35.9618C286.341 36.6083 286.71 37.2166 287.232 37.7468C288.486 39.0937 290.301 40.0167 292.116 40.8723C294.132 41.8222 296.246 42.7846 297.543 44.3476C297.7 44.537 298.077 44.34 297.92 44.1509C295.663 41.4315 291.241 40.5799 288.423 38.3041C287.107 37.2421 286.204 35.8716 286.492 34.3804C286.744 33.0764 287.703 31.9322 288.465 30.7747C289.293 29.595 289.729 28.2786 289.736 26.9407C289.667 25.5373 289.286 24.153 288.608 22.8472C287.143 19.8888 285.077 17.1243 282.486 14.655C279.55 11.8244 275.999 9.39756 271.989 7.47954C271.741 7.3609 271.547 7.67639 271.794 7.79427Z" fill="white"/>
<path id="Vector_8" d="M287.033 20.4552C288.293 19.9053 289.255 19.032 289.748 17.9913C290.241 16.9506 290.232 15.8101 289.724 14.7737C289.62 14.5643 289.188 14.6774 289.292 14.8871C289.768 15.8515 289.776 16.9139 289.314 17.8823C288.853 18.8507 287.952 19.6615 286.775 20.1682C286.52 20.2786 286.779 20.565 287.033 20.4552Z" fill="white"/>
<path id="Vector_9" d="M288.627 29.9293C285.756 29.3558 283.275 27.9787 281.678 26.0725C281.52 25.8836 281.143 26.0805 281.301 26.2692C282.968 28.2505 285.554 29.6796 288.543 30.2714C288.828 30.3276 288.91 29.9853 288.627 29.9293Z" fill="white"/>
<path id="Vector_10" d="M279.263 12.2308C278.834 12.521 278.317 12.7254 277.758 12.8256C277.2 12.9258 276.618 12.9187 276.064 12.805C275.78 12.746 275.698 13.0885 275.98 13.1471C276.593 13.2706 277.236 13.2778 277.853 13.1681C278.47 13.0584 279.043 12.8352 279.521 12.5179C279.569 12.4908 279.602 12.4508 279.614 12.4059C279.625 12.3609 279.613 12.3145 279.58 12.276C279.546 12.2381 279.493 12.2121 279.434 12.2037C279.374 12.1952 279.313 12.205 279.263 12.2308Z" fill="white"/>
<path id="Vector_11" d="M250.972 180.845C198.073 180.845 155.036 148.038 155.036 107.713C155.036 67.3879 198.073 34.5809 250.972 34.5809C256.565 34.5803 262.147 34.9491 267.656 35.6829C267.725 35.692 267.79 35.7112 267.849 35.7397C267.908 35.7681 267.959 35.8051 267.999 35.8485C268.04 35.892 268.068 35.9411 268.083 35.9929C268.098 36.0448 268.1 36.0984 268.088 36.1508C268.076 36.2031 268.051 36.2531 268.013 36.298C267.976 36.3428 267.927 36.3816 267.87 36.412C267.813 36.4425 267.748 36.4641 267.68 36.4755C267.612 36.487 267.542 36.4881 267.473 36.4788C262.024 35.7531 256.503 35.3885 250.972 35.389C198.657 35.389 156.096 67.8333 156.096 107.713C156.096 147.593 198.657 180.037 250.972 180.037C303.287 180.037 345.849 147.593 345.849 107.713C345.872 89.6878 337.043 72.3089 321.099 58.9978C321.005 58.9185 320.956 58.8141 320.963 58.7075C320.97 58.6008 321.032 58.5006 321.135 58.4286C321.239 58.3567 321.375 58.3189 321.515 58.3235C321.655 58.3281 321.787 58.3748 321.882 58.4533C338.004 71.9132 346.932 89.4864 346.909 107.713C346.909 148.038 303.872 180.845 250.972 180.845Z" fill="#E4E4E4"/>
<path id="Vector_12" d="M293.273 59.6626C303.756 59.6626 312.254 53.1845 312.254 45.1934C312.254 37.2022 303.756 30.7241 293.273 30.7241C282.79 30.7241 274.292 37.2022 274.292 45.1934C274.292 53.1845 282.79 59.6626 293.273 59.6626Z" fill="#176E74"/>
<path id="Vector_13" d="M290.684 52.724C290.356 52.724 290.033 52.6658 289.739 52.554C289.446 52.4422 289.191 52.2799 288.995 52.08L283.816 46.8167C283.65 46.6476 283.529 46.4552 283.46 46.2504C283.391 46.0457 283.376 45.8326 283.415 45.6234C283.455 45.4141 283.547 45.2128 283.689 45.031C283.83 44.8491 284.017 44.6902 284.239 44.5634C284.46 44.4366 284.713 44.3443 284.982 44.2919C285.25 44.2395 285.53 44.2278 285.804 44.2577C286.079 44.2876 286.343 44.3585 286.581 44.4662C286.82 44.5738 287.028 44.7163 287.195 44.8854L290.582 48.3285L299.284 38.3792C299.595 38.0255 300.078 37.7804 300.626 37.6975C301.174 37.6146 301.743 37.7007 302.208 37.937C302.673 38.1733 302.996 38.5405 303.107 38.9581C303.217 39.3757 303.106 39.8097 302.797 40.1649L292.441 52.0072C292.253 52.2214 292.001 52.3982 291.706 52.5228C291.41 52.6474 291.08 52.7162 290.742 52.7234C290.723 52.7237 290.703 52.724 290.684 52.724Z" fill="white"/>
<g id="PHONE">
<path id="Vector_14" d="M248.504 96.3639L219.233 34.2901L219.976 34.0867L214.593 22.6696L213.85 22.8732L204.863 3.81462C204.527 3.10281 204.011 2.44835 203.344 1.88863C202.676 1.32891 201.871 0.874878 200.973 0.552466C200.075 0.230054 199.103 0.0455702 198.112 0.00955437C197.121 -0.0264614 196.13 0.086694 195.197 0.342558L142.282 14.8418C141.348 15.0977 140.489 15.4912 139.755 16C139.021 16.5088 138.425 17.1228 138.002 17.807C137.579 18.4913 137.337 19.2323 137.29 19.9879C137.243 20.7434 137.391 21.4987 137.727 22.2105L143.993 35.4993L142.82 35.8436L146.82 43.7617L147.759 43.4861L148.59 45.2474L147.59 45.5407L151.591 53.4588L152.356 53.2342L181.368 114.76C181.702 115.472 182.217 116.128 182.884 116.688C183.551 117.249 184.357 117.703 185.255 118.026C186.153 118.349 187.126 118.533 188.118 118.568C189.11 118.604 190.101 118.489 191.034 118.232L243.949 103.733C245.833 103.215 247.371 102.148 248.225 100.766C249.079 99.3848 249.179 97.8016 248.504 96.3639Z" fill="#3F3D56"/>
<path id="Vector_15" d="M188.084 116.356C187.338 116.355 186.612 116.179 186.003 115.852C185.393 115.524 184.931 115.062 184.678 114.528L140.577 21.0019C140.252 20.313 140.3 19.5541 140.709 18.8919C141.118 18.2298 141.856 17.7187 142.759 17.471L154.018 14.386L154.001 14.6863C153.972 15.2076 154.112 15.7262 154.408 16.1966C154.704 16.667 155.147 17.0747 155.699 17.3837C156.25 17.6928 156.893 17.8937 157.57 17.9689C158.247 18.044 158.938 17.991 159.582 17.8145L184.569 10.9681C185.172 10.7574 185.701 10.4415 186.115 10.0459C186.528 9.65024 186.813 9.18602 186.947 8.69076C187.08 8.20376 187.06 7.69972 186.889 7.21978C186.717 6.73983 186.399 6.29758 185.961 5.92912L185.697 5.70559L197.327 2.5188C198.231 2.27222 199.226 2.30891 200.094 2.62082C200.962 2.93274 201.633 3.49443 201.959 4.18272L244.036 93.4144C244.894 95.2424 244.767 97.2553 243.681 99.0117C242.595 100.768 240.64 102.125 238.244 102.783L189.311 116.192C188.917 116.3 188.502 116.356 188.084 116.356Z" fill="white"/>
<path id="Vector_16" d="M183.94 49.85C191.844 49.85 198.251 44.9657 198.251 38.9407C198.251 32.9158 191.844 28.0315 183.94 28.0315C176.037 28.0315 169.629 32.9158 169.629 38.9407C169.629 44.9657 176.037 49.85 183.94 49.85Z" fill="#176E74"/>
<path id="Vector_17" d="M219.403 54.8053L169.843 68.3853C169.688 68.428 169.524 68.447 169.36 68.4413C169.195 68.4355 169.034 68.4051 168.885 68.3517C168.736 68.2984 168.602 68.2231 168.491 68.1303C168.38 68.0375 168.295 67.9289 168.239 67.8108C168.183 67.6927 168.159 67.5674 168.167 67.4421C168.175 67.3167 168.215 67.1938 168.285 67.0803C168.356 66.9669 168.455 66.8651 168.577 66.7808C168.699 66.6966 168.841 66.6315 168.996 66.5893L218.556 53.0094C218.868 52.9245 219.212 52.9375 219.511 53.0455C219.811 53.1535 220.042 53.3476 220.154 53.5854C220.266 53.8232 220.25 54.0851 220.109 54.3138C219.968 54.5425 219.714 54.7193 219.403 54.8053Z" fill="#E6E6E6"/>
<path id="Vector_18" d="M204.685 63.4156L188.384 67.8825C188.229 67.9251 188.065 67.9441 187.9 67.9383C187.736 67.9325 187.574 67.9021 187.425 67.8487C187.276 67.7953 187.143 67.7201 187.032 67.6273C186.921 67.5345 186.836 67.4259 186.78 67.3079C186.724 67.1898 186.7 67.0645 186.707 66.9392C186.715 66.8138 186.756 66.6909 186.826 66.5775C186.896 66.464 186.995 66.3622 187.117 66.278C187.239 66.1937 187.382 66.1286 187.537 66.0864L203.838 61.6196C204.151 61.534 204.495 61.5465 204.795 61.6543C205.096 61.7622 205.327 61.9566 205.44 62.1948C205.552 62.433 205.536 62.6954 205.394 62.9244C205.253 63.1533 204.998 63.33 204.685 63.4156Z" fill="#E6E6E6"/>
<path id="Vector_19" d="M208.563 71.6383L192.261 76.1051C192.106 76.1475 191.942 76.1663 191.778 76.1603C191.614 76.1543 191.453 76.1238 191.304 76.0703C191.155 76.0169 191.022 75.9417 190.911 75.849C190.801 75.7562 190.715 75.6478 190.659 75.5299C190.604 75.412 190.579 75.2868 190.587 75.1616C190.595 75.0365 190.635 74.9137 190.705 74.8003C190.775 74.687 190.874 74.5852 190.995 74.5009C191.117 74.4166 191.259 74.3514 191.414 74.309L207.716 69.8422C208.028 69.7566 208.372 69.7691 208.673 69.877C208.973 69.9849 209.205 70.1793 209.317 70.4174C209.429 70.6556 209.413 70.9181 209.272 71.147C209.13 71.376 208.875 71.5527 208.563 71.6383Z" fill="#E6E6E6"/>
<path id="Vector_20" d="M210.548 75.8498L194.247 80.3167C194.092 80.3594 193.928 80.3785 193.763 80.3727C193.599 80.367 193.437 80.3366 193.288 80.2832C193.139 80.2299 193.006 80.1546 192.895 80.0618C192.784 79.969 192.698 79.8604 192.642 79.7423C192.587 79.6242 192.562 79.4988 192.57 79.3735C192.578 79.2481 192.618 79.1251 192.689 79.0117C192.759 78.8982 192.858 78.7964 192.98 78.7122C193.102 78.6279 193.245 78.5628 193.4 78.5207L209.702 74.0539C209.856 74.0111 210.021 73.9921 210.185 73.9979C210.35 74.0036 210.511 74.0341 210.66 74.0874C210.809 74.1408 210.943 74.216 211.054 74.3088C211.164 74.4017 211.25 74.5102 211.306 74.6283C211.361 74.7464 211.386 74.8717 211.378 74.9971C211.37 75.1224 211.33 75.2454 211.26 75.3588C211.189 75.4723 211.09 75.5741 210.968 75.6583C210.846 75.7426 210.703 75.8076 210.548 75.8498Z" fill="#E6E6E6"/>
<path id="Vector_21" d="M215.739 64.9641L181.153 74.4412C180.998 74.4839 180.834 74.503 180.669 74.4972C180.505 74.4914 180.343 74.461 180.194 74.4077C180.045 74.3543 179.912 74.279 179.801 74.1862C179.69 74.0934 179.604 73.9848 179.549 73.8667C179.493 73.7487 179.468 73.6233 179.476 73.498C179.484 73.3726 179.524 73.2497 179.595 73.1363C179.665 73.0228 179.764 72.921 179.886 72.8368C180.008 72.7525 180.151 72.6874 180.306 72.6452L214.892 63.1681C215.047 63.1254 215.211 63.1064 215.376 63.1122C215.54 63.1179 215.702 63.1483 215.851 63.2017C216 63.2551 216.133 63.3303 216.244 63.4231C216.355 63.5159 216.441 63.6245 216.496 63.7426C216.552 63.8607 216.577 63.986 216.569 64.1114C216.561 64.2367 216.52 64.3597 216.45 64.4731C216.38 64.5866 216.281 64.6884 216.159 64.7726C216.037 64.8569 215.894 64.9219 215.739 64.9641Z" fill="#E6E6E6"/>
<path id="Vector_22" d="M208.773 86.0736L202.854 87.6955C202.322 87.8407 201.737 87.8192 201.227 87.6357C200.717 87.4522 200.323 87.1218 200.132 86.7169C199.941 86.3121 199.969 85.8661 200.209 85.4769C200.449 85.0877 200.883 84.7872 201.413 84.6414L207.332 83.0195C207.864 82.8743 208.449 82.8958 208.959 83.0793C209.469 83.2628 209.863 83.5932 210.054 83.998C210.245 84.4028 210.217 84.8489 209.977 85.2381C209.737 85.6273 209.304 85.9278 208.773 86.0736Z" fill="#6C63FF"/>
<path id="Vector_23" d="M162.129 14.5187C162.583 14.5187 162.952 14.2378 162.952 13.8912C162.952 13.5447 162.583 13.2637 162.129 13.2637C161.674 13.2637 161.306 13.5447 161.306 13.8912C161.306 14.2378 161.674 14.5187 162.129 14.5187Z" fill="white"/>
</g>
<path id="Vector_24" d="M67.4647 49.1819C76.6903 40.9037 91.6593 35.6866 105.46 38.3914C93.0302 45.4453 84.2745 55.6232 80.7416 67.1244C79.4002 71.5637 78.5146 76.6078 73.7864 79.3938C70.8444 81.1274 66.8886 81.6013 63.1932 81.2867C59.4977 80.9721 55.9803 79.9441 52.5103 78.9253L51.5877 79.0033C53.9085 68.2861 58.2391 57.4602 67.4647 49.1819Z" fill="#F0F0F0"/>
<path id="Vector_25" d="M105.425 38.6178C94.0319 40.9435 83.8899 45.9466 76.4394 52.9164C74.8006 54.3951 73.4777 56.0615 72.5196 57.8543C71.6602 59.6236 71.4382 61.5361 71.8764 63.393C72.2393 65.1307 72.8746 66.8761 72.6771 68.6507C72.5583 69.558 72.1893 70.4359 71.5943 71.2268C70.9992 72.0177 70.1916 72.7038 69.2243 73.2401C66.8596 74.6241 63.9837 75.278 61.142 75.8429C57.987 76.4701 54.6968 77.0835 52.1611 78.7385C51.8538 78.939 51.4636 78.5639 51.7704 78.3636C56.1821 75.4842 62.4477 75.7284 67.3625 73.6055C69.6558 72.6149 71.5714 71.0915 71.984 69.0417C72.3449 67.2494 71.6918 65.4491 71.3044 63.6921C70.842 61.8854 70.9671 60.0199 71.6686 58.2585C72.5039 56.4344 73.7403 54.7319 75.3249 53.2239C78.8213 49.7857 83.0052 46.788 87.7232 44.3405C93.0876 41.5244 99.0443 39.4287 105.336 38.1438C105.725 38.0644 105.812 38.5389 105.425 38.6178Z" fill="white"/>
<path id="Vector_26" d="M78.6652 50.5645C77.3008 49.4529 76.4993 48.0077 76.4037 46.4872C76.3081 44.9666 76.9246 43.4697 78.1432 42.2637C78.3909 42.0203 78.8987 42.3022 78.6507 42.5459C77.5132 43.6674 76.9391 45.0618 77.0319 46.4776C77.1247 47.8934 77.8784 49.2373 79.1569 50.2667C79.4344 50.4906 78.9411 50.7872 78.6652 50.5645Z" fill="white"/>
<path id="Vector_27" d="M71.5401 62.5305C75.6187 62.6618 79.6124 61.6165 82.7249 59.6029C83.033 59.4032 83.4233 59.7783 83.1156 59.9777C79.8715 62.0685 75.7126 63.1499 71.4687 63.0061C71.0642 62.9922 71.1378 62.5166 71.5401 62.5305Z" fill="white"/>
<path id="Vector_28" d="M93.2485 42.1473C93.6588 42.6613 94.2301 43.0895 94.9112 43.3935C95.5923 43.6976 96.3618 43.8679 97.1506 43.8892C97.5551 43.8992 97.481 44.3748 97.0791 44.3649C96.2078 44.3382 95.3583 44.1493 94.6048 43.8147C93.8513 43.48 93.2169 43.0098 92.7568 42.4451C92.7075 42.3946 92.6854 42.3318 92.6947 42.2693C92.7041 42.2069 92.7444 42.1495 92.8073 42.1088C92.8726 42.0696 92.9557 42.0517 93.0383 42.0589C93.1209 42.0661 93.1964 42.0979 93.2485 42.1473Z" fill="white"/>
<path id="Vector_29" d="M125.98 71.676C125.728 71.6752 125.475 71.6744 125.219 71.6769C121.82 71.68 118.427 71.8936 115.073 72.3155C114.813 72.345 114.55 72.3779 114.292 72.413C106.226 73.4952 98.4939 75.7096 91.4886 78.9435C88.7026 80.2323 86.0492 81.6808 83.5515 83.2765C80.1022 85.4803 76.5923 88.0791 72.5096 89.2511C72.0854 89.377 71.6515 89.4828 71.2101 89.5678L51.7842 79.8553C51.7546 79.8163 51.7218 79.7806 51.692 79.7415L50.8931 79.3808C51.0144 79.2916 51.1427 79.2011 51.264 79.112C51.3341 79.06 51.4084 79.0103 51.4785 78.9583C51.5266 78.9244 51.5749 78.8905 51.6158 78.8578C51.6317 78.8465 51.6479 78.8352 51.6609 78.8272C51.7018 78.7945 51.7443 78.7674 51.7822 78.7381C52.4975 78.2308 53.2188 77.7265 53.9459 77.2251C53.9489 77.2217 53.9489 77.2218 53.9561 77.2205C59.5095 73.4111 65.5289 69.9217 72.0518 67.2396C72.248 67.159 72.447 67.0748 72.6522 66.9986C75.6012 65.8021 78.6735 64.7913 81.8385 63.9763C83.5735 63.5344 85.3367 63.1596 87.1213 62.8535C91.7346 62.0694 96.481 61.8433 101.186 62.1835C110.567 62.8628 119.557 65.8214 125.529 71.2572C125.682 71.3964 125.831 71.5334 125.98 71.676Z" fill="#F0F0F0"/>
<path id="Vector_30" d="M125.775 71.8421C114.842 68.4702 102.792 67.8101 91.3386 69.9557C88.8622 70.3842 86.4898 71.1076 84.3089 72.0993C82.2253 73.1176 80.5375 74.5427 79.4208 76.2265C78.3382 77.7805 77.4668 79.4656 75.9075 80.792C75.0961 81.4618 74.1082 81.9934 73.0084 82.3518C71.9086 82.7102 70.7218 82.8873 69.5259 82.8716C66.5448 82.8914 63.732 82.0935 61.017 81.2404C58.0025 80.2931 54.891 79.2728 51.5592 79.4305C51.1555 79.4496 51.1403 78.971 51.5433 78.9519C57.3401 78.6776 62.1499 81.7482 67.7508 82.3088C70.3642 82.5704 73.097 82.2333 75.0453 80.7861C76.749 79.5205 77.6495 77.7834 78.7278 76.2027C79.7856 74.548 81.3589 73.1159 83.3101 72.0315C85.4178 70.9583 87.7496 70.1665 90.2058 69.6897C95.7131 68.5492 101.421 68.0759 107.121 68.2871C113.629 68.5006 120.04 69.5611 126.078 71.4227C126.452 71.5381 126.146 71.9567 125.775 71.8421Z" fill="white"/>
<path id="Vector_31" d="M94.9733 69.0993C94.762 67.5856 95.2634 66.0638 96.388 64.8059C97.5126 63.5479 99.1872 62.6357 101.113 62.232C101.503 62.1514 101.685 62.6095 101.295 62.6903C99.501 63.0637 97.9412 63.9136 96.8971 65.0866C95.853 66.2596 95.3934 67.6785 95.6012 69.0872C95.6458 69.3934 95.0178 69.4037 94.9733 69.0993Z" fill="white"/>
<path id="Vector_32" d="M79.8335 75.3834C82.9863 77.3602 87.0007 78.3585 91.0762 78.1792C91.4799 78.1612 91.4953 78.6398 91.0921 78.6578C86.8506 78.8383 82.6758 77.793 79.4008 75.7304C79.0889 75.5336 79.5233 75.1877 79.8335 75.3834Z" fill="white"/>
<path id="Vector_33" d="M113.265 69.0718C113.187 69.6704 113.305 70.2746 113.609 70.8299C113.912 71.3853 114.392 71.8745 115.005 72.2535C115.32 72.4471 114.885 72.7929 114.572 72.6005C113.898 72.1793 113.369 71.6386 113.031 71.0256C112.694 70.4126 112.559 69.7459 112.637 69.0839C112.638 69.021 112.67 68.9606 112.727 68.9151C112.784 68.8695 112.861 68.8421 112.943 68.8385C113.027 68.8372 113.107 68.861 113.167 68.9047C113.228 68.9484 113.263 69.0084 113.265 69.0718Z" fill="white"/>
<path id="Vector_34" d="M344.338 208.291C354.397 210.171 366.129 208.383 372.745 202.309C361.483 202.191 350.639 199.039 342.132 193.412C338.861 191.233 335.521 188.55 331.18 188.444C328.478 188.378 325.884 189.384 323.883 190.769C321.882 192.154 320.385 193.902 318.91 195.629L318.323 195.882C325.679 201.441 334.279 206.411 344.338 208.291Z" fill="#F0F0F0"/>
<path id="Vector_35" d="M372.598 202.187C364.589 204.517 355.82 204.863 347.537 203.177C345.746 202.839 344.035 202.287 342.469 201.542C340.974 200.779 339.775 199.724 338.995 198.488C338.238 197.347 337.637 196.113 336.529 195.132C335.952 194.636 335.244 194.239 334.452 193.966C333.66 193.694 332.801 193.552 331.931 193.55C329.765 193.503 327.706 194.051 325.717 194.641C323.508 195.296 321.227 196.003 318.809 195.852C318.516 195.834 318.496 196.181 318.788 196.2C322.996 196.463 326.55 194.285 330.63 193.939C332.535 193.778 334.514 194.053 335.903 195.127C337.117 196.065 337.738 197.337 338.491 198.498C339.229 199.712 340.345 200.77 341.742 201.58C343.253 202.383 344.933 202.985 346.709 203.358C350.689 204.248 354.828 204.655 358.975 204.565C363.708 204.481 368.387 203.782 372.811 202.495C373.084 202.416 372.87 202.108 372.598 202.187Z" fill="white"/>
<path id="Vector_36" d="M350.162 203.84C349.98 204.938 350.315 206.049 351.108 206.976C351.902 207.902 353.101 208.584 354.493 208.898C354.775 208.961 354.916 208.63 354.634 208.567C353.338 208.276 352.22 207.641 351.484 206.777C350.747 205.913 350.44 204.877 350.618 203.856C350.656 203.634 350.2 203.619 350.162 203.84Z" fill="white"/>
<path id="Vector_37" d="M339.279 199.106C341.608 197.704 344.545 197.023 347.503 197.198C347.796 197.216 347.816 196.868 347.523 196.851C344.445 196.673 341.391 197.386 338.972 198.849C338.741 198.988 339.05 199.244 339.279 199.106Z" fill="white"/>
<path id="Vector_38" d="M363.455 204.062C363.409 203.626 363.506 203.189 363.738 202.788C363.969 202.388 364.327 202.038 364.78 201.769C365.012 201.632 364.703 201.376 364.472 201.512C363.973 201.811 363.579 202.198 363.322 202.64C363.065 203.082 362.954 203.564 362.999 204.046C362.998 204.092 363.02 204.136 363.06 204.17C363.101 204.204 363.157 204.225 363.216 204.228C363.277 204.23 363.336 204.214 363.38 204.183C363.425 204.151 363.452 204.108 363.455 204.062Z" fill="white"/>
<path id="Vector_39" d="M366.233 176.042C366.085 176.125 365.936 176.208 365.784 176.289C363.78 177.391 361.663 178.367 359.452 179.207C359.282 179.275 359.109 179.341 358.937 179.404C353.582 181.385 347.79 182.592 341.857 182.962C339.496 183.107 337.124 183.115 334.762 182.987C331.499 182.809 327.979 182.418 324.92 183.053C324.6 183.117 324.285 183.195 323.977 183.288L317.963 195.317C317.967 195.349 317.968 195.381 317.972 195.413L317.703 195.885C317.825 195.898 317.951 195.91 318.072 195.923C318.142 195.931 318.214 195.936 318.284 195.944C318.331 195.948 318.379 195.953 318.421 195.959C318.437 195.96 318.453 195.962 318.465 195.962C318.507 195.968 318.547 195.97 318.586 195.975C319.291 196.042 319.997 196.105 320.706 196.164C320.709 196.165 320.709 196.165 320.714 196.163C326.107 196.653 331.557 196.654 336.949 196.166C337.11 196.15 337.274 196.135 337.438 196.113C339.843 195.86 342.218 195.458 344.537 194.91C345.806 194.607 347.054 194.255 348.276 193.856C351.431 192.82 354.353 191.412 356.934 189.684C362.079 186.238 365.722 181.576 366.202 176.435C366.214 176.304 366.225 176.175 366.233 176.042Z" fill="#F0F0F0"/>
<path id="Vector_40" d="M366.02 176.011C361.464 181.547 354.736 185.849 346.791 188.304C345.093 188.856 343.292 189.2 341.453 189.324C339.657 189.401 337.867 189.109 336.268 188.48C334.762 187.916 333.307 187.207 331.648 186.932C330.796 186.801 329.917 186.809 329.069 186.955C328.221 187.101 327.423 187.382 326.727 187.779C324.96 188.736 323.749 190.119 322.627 191.503C321.381 193.04 320.118 194.651 318.068 195.64C317.819 195.76 318.078 196.046 318.326 195.927C321.893 194.206 323.011 190.836 325.996 188.687C327.389 187.684 329.187 186.996 331.143 187.215C332.854 187.408 334.355 188.138 335.873 188.719C337.421 189.35 339.148 189.683 340.903 189.688C342.744 189.636 344.56 189.345 346.273 188.828C350.154 187.712 353.78 186.137 357.019 184.162C360.733 181.923 363.916 179.217 366.432 176.16C366.588 175.971 366.174 175.823 366.02 176.011Z" fill="white"/>
<path id="Vector_41" d="M349.411 187.628C350.132 188.588 351.277 189.322 352.643 189.697C354.008 190.073 355.504 190.067 356.864 189.679C357.138 189.6 356.99 189.271 356.715 189.35C355.45 189.713 354.056 189.719 352.786 189.367C351.515 189.015 350.452 188.328 349.787 187.431C349.642 187.236 349.267 187.434 349.411 187.628Z" fill="white"/>
<path id="Vector_42" d="M336.982 188.843C337.735 186.655 339.541 184.763 342.042 183.546C342.29 183.425 342.031 183.138 341.784 183.259C339.185 184.529 337.31 186.501 336.533 188.779C336.46 188.996 336.909 189.059 336.982 188.843Z" fill="white"/>
<path id="Vector_43" d="M360.199 181.705C359.819 181.378 359.551 180.984 359.419 180.558C359.288 180.132 359.297 179.688 359.446 179.266C359.524 179.05 359.074 178.987 358.998 179.202C358.836 179.669 358.826 180.16 358.97 180.63C359.114 181.101 359.407 181.537 359.823 181.902C359.858 181.938 359.911 181.964 359.97 181.972C360.029 181.98 360.09 181.971 360.14 181.947C360.19 181.921 360.224 181.88 360.235 181.835C360.246 181.79 360.233 181.743 360.199 181.705Z" fill="white"/>
<g id="TAB">
<path id="Vector_44" d="M378.098 135.787L362.759 155.464L363.342 155.699L358.148 163.206L357.066 162.77L353.653 167.145L354.501 167.517L348.936 174.863L347.971 174.438L297.92 238.649C296.607 240.33 294.474 241.544 291.987 242.027C289.501 242.509 286.865 242.22 284.658 241.223L191.61 199.077C189.406 198.077 187.812 196.45 187.179 194.555C186.546 192.659 186.925 190.65 188.234 188.968L268.413 86.106C269.725 84.4256 271.859 83.2108 274.345 82.7283C276.831 82.2458 279.467 82.5349 281.674 83.5322L374.722 125.678C376.926 126.679 378.519 128.306 379.151 130.201C379.784 132.096 379.406 134.105 378.098 135.787Z" fill="#3F3D56"/>
<path id="Vector_45" d="M288.223 236.91L194.847 194.616C194.168 194.307 193.677 193.806 193.482 193.222C193.287 192.638 193.403 192.018 193.807 191.5L274.517 87.9535C274.922 87.4356 275.58 87.0613 276.346 86.9126C277.112 86.7638 277.925 86.8529 278.605 87.1603L371.981 129.454C372.66 129.763 373.151 130.264 373.346 130.848C373.541 131.433 373.425 132.052 373.021 132.571L292.311 236.117C291.906 236.635 291.248 237.009 290.482 237.158C289.716 237.306 288.903 237.217 288.223 236.91Z" fill="white"/>
<path id="Vector_46" d="M326.331 107.013C326.785 107.013 327.154 106.732 327.154 106.386C327.154 106.039 326.785 105.758 326.331 105.758C325.876 105.758 325.507 106.039 325.507 106.386C325.507 106.732 325.876 107.013 326.331 107.013Z" fill="white"/>
<path id="Vector_47" d="M321.236 181.187L243.291 145.882C243.046 145.773 242.833 145.627 242.662 145.454C242.492 145.281 242.368 145.085 242.297 144.875C242.227 144.666 242.211 144.448 242.251 144.234C242.292 144.019 242.387 143.814 242.532 143.628C242.677 143.442 242.868 143.279 243.096 143.15C243.323 143.021 243.582 142.927 243.857 142.874C244.132 142.821 244.418 142.81 244.699 142.841C244.98 142.873 245.249 142.946 245.493 143.058L323.438 178.363C323.682 178.472 323.896 178.618 324.067 178.791C324.237 178.964 324.361 179.16 324.432 179.37C324.502 179.579 324.518 179.797 324.478 180.012C324.437 180.226 324.342 180.432 324.197 180.617C324.052 180.803 323.86 180.966 323.633 181.095C323.406 181.224 323.147 181.318 322.872 181.371C322.597 181.424 322.311 181.435 322.03 181.404C321.749 181.372 321.48 181.299 321.236 181.187Z" fill="#E6E6E6"/>
<path id="Vector_48" d="M290.113 175.717L264.475 164.104C264.231 163.994 264.019 163.848 263.849 163.675C263.68 163.503 263.557 163.306 263.487 163.097C263.417 162.888 263.402 162.67 263.442 162.457C263.483 162.243 263.578 162.038 263.723 161.852C263.867 161.667 264.058 161.505 264.285 161.376C264.512 161.246 264.77 161.152 265.044 161.099C265.318 161.046 265.604 161.035 265.884 161.065C266.164 161.096 266.433 161.169 266.677 161.279L292.315 172.892C292.558 173.002 292.771 173.148 292.94 173.321C293.11 173.493 293.233 173.69 293.303 173.899C293.373 174.108 293.388 174.326 293.347 174.539C293.307 174.753 293.212 174.958 293.067 175.144C292.922 175.329 292.731 175.491 292.505 175.62C292.278 175.749 292.02 175.843 291.746 175.896C291.472 175.95 291.186 175.961 290.906 175.93C290.626 175.9 290.357 175.827 290.113 175.717Z" fill="#E6E6E6"/>
<path id="Vector_49" d="M280.033 188.649L254.395 177.036C253.903 176.814 253.548 176.451 253.407 176.029C253.266 175.607 253.351 175.159 253.643 174.785C253.935 174.41 254.41 174.139 254.964 174.032C255.518 173.924 256.105 173.989 256.596 174.211L282.235 185.824C282.478 185.934 282.691 186.08 282.86 186.253C283.029 186.426 283.153 186.622 283.222 186.831C283.292 187.04 283.307 187.258 283.267 187.471C283.227 187.685 283.131 187.89 282.987 188.076C282.842 188.261 282.651 188.423 282.424 188.552C282.198 188.682 281.94 188.776 281.666 188.829C281.391 188.882 281.106 188.894 280.826 188.863C280.546 188.832 280.276 188.759 280.033 188.649Z" fill="#E6E6E6"/>
<path id="Vector_50" d="M274.87 195.273L249.232 183.66C248.988 183.55 248.774 183.405 248.604 183.232C248.434 183.059 248.31 182.862 248.24 182.653C248.17 182.443 248.155 182.226 248.195 182.012C248.235 181.798 248.331 181.592 248.475 181.406C248.62 181.221 248.812 181.059 249.039 180.929C249.266 180.8 249.524 180.706 249.799 180.653C250.074 180.6 250.359 180.589 250.64 180.62C250.92 180.651 251.19 180.724 251.433 180.835L277.072 192.448C277.316 192.558 277.53 192.703 277.701 192.876C277.871 193.049 277.995 193.246 278.066 193.455C278.136 193.665 278.152 193.883 278.112 194.097C278.071 194.311 277.976 194.517 277.831 194.703C277.686 194.889 277.494 195.051 277.267 195.181C277.04 195.31 276.781 195.404 276.506 195.457C276.231 195.51 275.945 195.521 275.664 195.489C275.383 195.458 275.113 195.384 274.87 195.273Z" fill="#E6E6E6"/>
<path id="Vector_51" d="M299.523 188.605L245.127 163.967C244.638 163.743 244.285 163.381 244.145 162.96C244.006 162.538 244.091 162.092 244.382 161.718C244.673 161.345 245.147 161.074 245.699 160.966C246.251 160.858 246.837 160.921 247.328 161.142L301.724 185.78C301.969 185.89 302.183 186.036 302.353 186.208C302.524 186.381 302.648 186.578 302.718 186.788C302.789 186.997 302.805 187.215 302.764 187.429C302.724 187.643 302.629 187.849 302.484 188.035C302.339 188.221 302.147 188.383 301.92 188.513C301.692 188.642 301.434 188.736 301.158 188.789C300.883 188.842 300.597 188.853 300.317 188.821C300.036 188.79 299.766 188.716 299.523 188.605Z" fill="#E6E6E6"/>
<path id="Vector_52" d="M289.155 220.093L279.846 215.876C279.011 215.497 278.408 214.882 278.169 214.164C277.93 213.446 278.074 212.686 278.571 212.049C279.067 211.413 279.874 210.952 280.815 210.769C281.756 210.586 282.754 210.696 283.59 211.073L292.899 215.29C293.734 215.668 294.338 216.284 294.578 217.002C294.818 217.72 294.674 218.481 294.177 219.118C293.681 219.755 292.873 220.216 291.931 220.399C290.989 220.581 289.99 220.471 289.155 220.093Z" fill="#176E74"/>
<path id="Vector_53" d="M306.523 151.631C317.062 151.631 325.605 145.119 325.605 137.086C325.605 129.052 317.062 122.54 306.523 122.54C295.985 122.54 287.442 129.052 287.442 137.086C287.442 145.119 295.985 151.631 306.523 151.631Z" fill="#176E74"/>
</g>
<g id="PC">
<path id="Vector_54" d="M1.0408 199.681H259.264V85.7206C259.263 84.8667 258.817 84.0481 258.025 83.4443C257.233 82.8406 256.159 82.501 255.039 82.5H5.26572C4.14561 82.501 3.07173 82.8406 2.27969 83.4443C1.48764 84.0481 1.0421 84.8667 1.0408 85.7206V199.681Z" fill="#CACACA"/>
<path id="Vector_55" d="M251.286 86.9542H9.01898V191.8H251.286V86.9542Z" fill="white"/>
<path id="Vector_56" d="M0.816071 196.597V210.66C0.816062 211.243 0.966689 211.82 1.25935 212.359C1.55201 212.897 1.98098 213.387 2.52175 213.799C3.06253 214.211 3.70453 214.538 4.41109 214.761C5.11765 214.984 5.87494 215.099 6.63972 215.099H101.948V242.853H100.682C100.583 242.853 100.484 242.868 100.392 242.897C100.301 242.925 100.217 242.968 100.147 243.022C100.077 243.075 100.021 243.139 99.9829 243.209C99.9449 243.279 99.9254 243.354 99.9254 243.429V245.36C99.9254 245.435 99.9449 245.51 99.9829 245.58C100.021 245.65 100.077 245.714 100.147 245.767C100.217 245.821 100.301 245.863 100.392 245.892C100.484 245.921 100.583 245.936 100.682 245.936H159.848C159.947 245.936 160.046 245.921 160.138 245.892C160.229 245.863 160.313 245.821 160.383 245.767C160.453 245.714 160.509 245.65 160.547 245.58C160.585 245.51 160.605 245.435 160.605 245.36V243.429C160.605 243.354 160.585 243.279 160.547 243.209C160.509 243.139 160.453 243.075 160.383 243.022C160.313 242.968 160.229 242.925 160.138 242.897C160.046 242.868 159.947 242.853 159.848 242.853H158.582V215.099H253.89C254.655 215.099 255.412 214.984 256.119 214.761C256.825 214.538 257.467 214.211 258.008 213.799C258.549 213.387 258.978 212.897 259.271 212.359C259.563 211.82 259.714 211.243 259.714 210.66V196.597L0.816071 196.597Z" fill="#3F3D56"/>
<path id="Vector_57" d="M216.23 122.019H101.501C100.778 122.019 100.085 121.8 99.5732 121.41C99.0618 121.02 98.7744 120.491 98.7744 119.94C98.7744 119.389 99.0618 118.86 99.5732 118.47C100.085 118.08 100.778 117.861 101.501 117.861H216.23C216.953 117.861 217.647 118.08 218.158 118.47C218.67 118.86 218.957 119.389 218.957 119.94C218.957 120.491 218.67 121.02 218.158 121.41C217.647 121.8 216.953 122.019 216.23 122.019Z" fill="#E6E6E6"/>
<path id="Vector_58" d="M177.734 131.403H139.997C139.274 131.403 138.58 131.184 138.069 130.794C137.557 130.404 137.27 129.875 137.27 129.324C137.27 128.773 137.557 128.244 138.069 127.854C138.58 127.464 139.274 127.245 139.997 127.245H177.734C178.458 127.245 179.151 127.464 179.663 127.854C180.174 128.244 180.461 128.773 180.461 129.324C180.461 129.875 180.174 130.404 179.663 130.794C179.151 131.184 178.458 131.403 177.734 131.403Z" fill="#E6E6E6"/>
<path id="Vector_59" d="M177.734 150.438H139.997C139.274 150.438 138.58 150.219 138.069 149.829C137.557 149.439 137.27 148.91 137.27 148.359C137.27 147.808 137.557 147.279 138.069 146.889C138.58 146.499 139.274 146.28 139.997 146.28H177.734C178.458 146.28 179.151 146.499 179.663 146.889C180.174 147.279 180.461 147.808 180.461 148.359C180.461 148.91 180.174 149.439 179.663 149.829C179.151 150.219 178.458 150.438 177.734 150.438Z" fill="#E6E6E6"/>
<path id="Vector_60" d="M177.734 160.188H139.997C139.639 160.188 139.284 160.134 138.953 160.029C138.622 159.925 138.322 159.772 138.069 159.579C137.815 159.386 137.614 159.157 137.477 158.904C137.34 158.652 137.27 158.382 137.27 158.109C137.27 157.836 137.34 157.565 137.477 157.313C137.614 157.061 137.815 156.832 138.069 156.639C138.322 156.446 138.622 156.293 138.953 156.188C139.284 156.084 139.639 156.03 139.997 156.03H177.734C178.092 156.03 178.447 156.084 178.778 156.188C179.109 156.293 179.409 156.446 179.663 156.639C179.916 156.832 180.117 157.061 180.254 157.313C180.391 157.565 180.461 157.836 180.461 158.109C180.461 158.382 180.391 158.652 180.254 158.904C180.117 159.157 179.916 159.386 179.663 159.579C179.409 159.772 179.109 159.925 178.778 160.029C178.447 160.134 178.092 160.188 177.734 160.188Z" fill="#E6E6E6"/>
<path id="Vector_61" d="M198.899 140.787H118.833C118.109 140.787 117.416 140.568 116.904 140.178C116.393 139.788 116.106 139.259 116.106 138.708C116.106 138.157 116.393 137.628 116.904 137.238C117.416 136.848 118.109 136.629 118.833 136.629H198.899C199.622 136.629 200.316 136.848 200.827 137.238C201.338 137.628 201.626 138.157 201.626 138.708C201.626 139.259 201.338 139.788 200.827 140.178C200.316 140.568 199.622 140.787 198.899 140.787Z" fill="#E6E6E6"/>
<path id="Vector_62" d="M214.32 180.149H200.617C199.388 180.149 198.208 179.777 197.338 179.114C196.469 178.451 195.98 177.552 195.98 176.614C195.98 175.677 196.469 174.778 197.338 174.115C198.208 173.452 199.388 173.079 200.617 173.079H214.32C215.55 173.079 216.729 173.452 217.599 174.115C218.468 174.778 218.957 175.677 218.957 176.614C218.957 177.552 218.468 178.451 217.599 179.114C216.729 179.777 215.55 180.149 214.32 180.149Z" fill="#176E74"/>
<path id="Vector_63" d="M65.4246 154.492C78.5975 154.492 89.2762 146.352 89.2762 136.31C89.2762 126.269 78.5975 118.128 65.4246 118.128C52.2517 118.128 41.573 126.269 41.573 136.31C41.573 146.352 52.2517 154.492 65.4246 154.492Z" fill="#176E74"/>
<path id="Vector_64" d="M130.04 84.7271C130.537 84.7271 130.939 84.4203 130.939 84.0418C130.939 83.6634 130.537 83.3566 130.04 83.3566C129.544 83.3566 129.141 83.6634 129.141 84.0418C129.141 84.4203 129.544 84.7271 130.04 84.7271Z" fill="white"/>
</g>
</g>
<defs>
<clipPath id="clip0_0_1">
<rect width="386" height="242" fill="white"/>
</clipPath>
</defs>
</svg>
